<svg width="788" height="712" viewBox="0 0 788 712" fill="none" xmlns="http://www.w3.org/2000/svg">
<path d="M634.134 427.618C634.134 427.618 605.463 430.662 570.917 399.523C570.917 399.523 565.881 420.579 562.512 425.94C560.021 431.015 556.237 435.344 551.539 438.491C531.022 451.755 501.223 434.783 491.842 429.86C487.508 427.593 486.856 427.456 470.811 418.825C466.327 416.408 442.478 402.717 442.478 402.717C436.566 400.112 426.445 400.55 426.445 400.55L419.017 412.8C416.147 417.533 412.278 421.581 407.681 424.662C412.654 424.249 417.589 423.936 422.537 423.623C427.472 423.272 432.407 422.971 437.317 422.52C439.785 422.332 442.24 422.082 444.682 421.794C447.125 421.543 449.555 421.18 451.985 420.792C454.401 420.41 456.794 419.887 459.149 419.226C461.535 418.644 463.768 417.559 465.701 416.045C464.061 417.987 461.953 419.479 459.575 420.378C457.245 421.357 454.835 422.137 452.373 422.708C447.496 423.855 442.538 424.626 437.543 425.013C432.557 425.426 427.572 425.627 422.587 425.564C417.605 425.552 412.628 425.251 407.681 424.662H407.669C403.231 427.645 398.21 429.651 392.938 430.549L336.723 440.207C336.723 440.207 350.025 457.304 336.285 493.078C336.285 493.078 364.154 490.259 381.59 495.508C399.013 500.744 425.756 500.744 454.064 490.522C482.372 480.301 497.303 482.919 516.179 486.589C535.055 490.259 603.721 523.553 627.833 462.214C627.833 462.215 635.963 442.299 634.134 427.618ZM346.881 456.791C346.395 456.773 345.934 456.568 345.595 456.217C345.257 455.867 345.068 455.399 345.068 454.912C345.068 454.425 345.257 453.957 345.595 453.606C345.934 453.256 346.395 453.05 346.881 453.033C347.368 453.05 347.829 453.256 348.167 453.606C348.506 453.957 348.695 454.425 348.695 454.912C348.695 455.399 348.506 455.867 348.167 456.217C347.829 456.568 347.368 456.773 346.881 456.791ZM345.679 442.812C346.167 442.828 346.629 443.033 346.968 443.384C347.307 443.734 347.497 444.203 347.497 444.691C347.497 445.179 347.307 445.648 346.968 445.998C346.629 446.349 346.167 446.554 345.679 446.57C345.191 446.554 344.729 446.349 344.39 445.998C344.051 445.648 343.861 445.179 343.861 444.691C343.861 444.203 344.051 443.734 344.39 443.384C344.729 443.033 345.191 442.828 345.679 442.812H345.679ZM342.072 491.061C341.585 491.044 341.124 490.838 340.786 490.488C340.448 490.137 340.259 489.669 340.259 489.182C340.259 488.695 340.448 488.227 340.786 487.877C341.124 487.526 341.585 487.321 342.072 487.303C342.558 487.321 343.019 487.526 343.357 487.877C343.696 488.227 343.885 488.695 343.885 489.182C343.885 489.669 343.696 490.137 343.357 490.488C343.019 490.838 342.558 491.044 342.072 491.061H342.072ZM345.078 480.84C344.591 480.823 344.13 480.617 343.792 480.267C343.454 479.916 343.265 479.448 343.265 478.961C343.265 478.474 343.454 478.006 343.792 477.656C344.13 477.305 344.591 477.1 345.078 477.082C345.564 477.1 346.025 477.305 346.364 477.656C346.702 478.006 346.891 478.474 346.891 478.961C346.891 479.448 346.702 479.916 346.364 480.267C346.025 480.617 345.564 480.823 345.078 480.84ZM347.182 468.214C346.695 468.197 346.234 467.991 345.896 467.641C345.558 467.29 345.369 466.822 345.369 466.335C345.369 465.848 345.558 465.38 345.896 465.03C346.234 464.679 346.695 464.474 347.182 464.457C347.669 464.474 348.13 464.679 348.468 465.03C348.806 465.38 348.995 465.848 348.995 466.335C348.995 466.822 348.806 467.291 348.468 467.641C348.13 467.991 347.669 468.197 347.182 468.214H347.182Z" fill="#020202"/>
<path d="M527.365 367.77C528.198 368.986 529.207 370.071 530.358 370.99C529.932 370.877 526.488 369.9 526.638 368.66V368.585C526.77 368.232 527.029 367.942 527.365 367.77Z" fill="#020202"/>
<path d="M633.182 371.315C632.309 357.326 629.649 343.507 625.266 330.193C617.4 306.507 609.847 297.426 609.847 297.426C609.847 297.426 606.765 301.447 602.744 298.591C598.724 295.735 587.463 291.877 587.463 291.877C567.86 286.666 560.733 294.996 560.733 294.996C557.193 299.832 553.375 304.457 549.297 308.849C550.978 307.655 552.789 306.655 554.696 305.868C557.305 304.754 560.082 304.085 562.913 303.889C564.357 303.806 565.807 303.885 567.234 304.127C568.674 304.391 570.069 304.854 571.38 305.505C573.941 306.809 576.005 308.917 577.255 311.505C575.416 309.65 573.187 308.228 570.73 307.341C568.273 306.455 565.65 306.127 563.05 306.382C560.435 306.555 557.845 307 555.322 307.709C552.98 308.348 550.625 309.112 548.258 309.964L548.245 309.977C534.429 324.469 524.296 328.652 524.296 328.652C519.887 346.965 522.279 358.013 525.273 364.213C525.273 363.75 525.31 363.286 525.335 362.823C525.539 360.721 525.891 358.637 526.388 356.585C527.379 352.512 528.609 348.501 530.07 344.573C531.536 340.665 533.114 336.794 534.868 333.011C536.59 329.206 538.517 325.497 540.642 321.901C538.199 329.905 535.243 337.658 532.425 345.437C530.984 349.32 529.582 353.203 528.279 357.111C527.64 359.065 527.014 361.031 526.55 363.023C526.32 363.911 526.157 364.816 526.062 365.729C526.458 366.433 526.892 367.115 527.365 367.77C528.738 367.074 530.214 366.6 531.736 366.367C542.396 364.188 604.285 376.714 575.213 383.377L573.61 389.615C613.993 403.519 635.963 385.419 635.963 385.419C634.372 383.327 633.57 377.215 633.182 371.315ZM532.137 362.096C531.65 362.079 531.189 361.873 530.851 361.523C530.513 361.173 530.324 360.705 530.324 360.217C530.324 359.73 530.513 359.262 530.851 358.912C531.189 358.561 531.65 358.356 532.137 358.339C532.624 358.356 533.085 358.561 533.423 358.912C533.761 359.262 533.95 359.73 533.95 360.217C533.95 360.705 533.761 361.173 533.423 361.523C533.085 361.873 532.624 362.079 532.137 362.096ZM542.283 362.773C541.796 362.755 541.335 362.55 540.997 362.199C540.659 361.849 540.47 361.381 540.47 360.894C540.47 360.407 540.659 359.939 540.997 359.588C541.335 359.238 541.796 359.032 542.283 359.015C542.769 359.032 543.23 359.238 543.568 359.588C543.907 359.939 544.096 360.407 544.096 360.894C544.096 361.381 543.907 361.849 543.568 362.199C543.23 362.55 542.769 362.755 542.283 362.773V362.773ZM552.88 364.576C552.393 364.559 551.932 364.354 551.594 364.003C551.255 363.653 551.066 363.185 551.066 362.698C551.066 362.211 551.255 361.742 551.594 361.392C551.932 361.042 552.393 360.836 552.88 360.819C553.366 360.836 553.827 361.042 554.165 361.392C554.504 361.743 554.692 362.211 554.692 362.698C554.692 363.185 554.504 363.653 554.165 364.003C553.827 364.353 553.366 364.559 552.88 364.576ZM563.927 366.606C563.44 366.588 562.979 366.383 562.641 366.032C562.303 365.682 562.114 365.214 562.114 364.727C562.114 364.24 562.303 363.772 562.641 363.421C562.979 363.071 563.44 362.865 563.927 362.848C564.414 362.865 564.875 363.071 565.213 363.421C565.551 363.772 565.74 364.24 565.74 364.727C565.74 365.214 565.551 365.682 565.213 366.032C564.875 366.383 564.414 366.588 563.927 366.606ZM587.939 346.176C587.776 348.806 587.651 351.449 587.388 354.067L586.912 358C586.762 359.303 586.586 360.606 586.336 361.908C585.872 364.489 585.446 367.094 584.858 369.649C584.244 372.217 583.63 374.772 582.904 377.29C583.079 374.66 583.367 372.054 583.643 369.462C583.943 366.856 584.106 364.251 584.394 361.658C584.87 356.46 585.246 351.274 585.434 346.088C585.628 340.917 585.515 335.739 585.096 330.582C584.933 329.304 584.858 328.001 584.62 326.736L584.319 324.82C584.194 324.194 584.043 323.567 583.906 322.941C583.424 320.389 582.504 317.94 581.188 315.701C582.121 316.647 582.895 317.739 583.48 318.933C583.805 319.515 584.094 320.118 584.344 320.736C584.624 321.341 584.87 321.959 585.083 322.59C585.96 325.103 586.61 327.69 587.025 330.319C587.817 335.565 588.123 340.873 587.939 346.176V346.176Z" fill="#020202"/>
<path d="M524.296 328.653C524.026 329.278 523.792 329.917 523.594 330.569C523.644 330.03 523.682 329.492 523.707 328.941C524.083 328.765 524.296 328.653 524.296 328.653Z" fill="#020202"/>
<path d="M530.559 370.251L525.962 392.033L523.632 404.822L520.889 404.158C497.541 399.235 459.037 382.438 459.037 382.438L450.181 371.002C455.705 372.305 457.396 366.117 457.396 366.117C463.822 367.733 464.06 361.144 464.06 361.144C469.709 361.721 468.719 353.667 468.719 353.667C474.744 354.33 472.803 347.278 472.803 347.278C466.997 341.563 463.657 333.804 463.496 325.659C463.146 325.627 462.794 325.627 462.444 325.659C462.444 325.659 480.255 295.146 496.464 301.021L512.684 306.896C510.804 310.697 509.79 314.868 509.716 319.108C511.194 332.824 520.137 330.419 523.244 329.141C522.35 331.627 521.646 334.177 521.139 336.769C520.51 339.859 520.113 342.99 519.949 346.139C519.912 347.717 519.912 349.295 519.987 350.886C520.091 352.482 520.309 354.068 520.638 355.633C520.958 357.225 521.489 358.767 522.216 360.218C522.781 361.346 523.559 362.355 524.509 363.186C524.624 363.293 524.745 363.393 524.872 363.487L524.884 363.499C526.062 364.589 530.559 370.251 530.559 370.251Z" fill="#020202"/>
<path d="M484.059 232.551C484.25 234.985 484.568 237.407 485.012 239.808C485.439 242.177 486.053 244.509 486.848 246.781C487.238 247.895 487.702 248.982 488.238 250.034C488.889 251.24 489.273 252.573 489.363 253.94C489.566 256.576 489.167 259.223 488.194 261.681L488.165 261.741L488.13 261.805C487.786 262.426 487.545 263.098 487.413 263.795C487.346 264.049 487.33 264.313 487.366 264.574C487.403 264.834 487.49 265.084 487.625 265.309C488.001 265.707 488.498 265.969 489.039 266.055C489.403 266.087 489.75 266.155 490.127 266.172L491.289 266.167L491.362 266.167C491.587 266.166 491.809 266.228 492.001 266.345C492.193 266.462 492.35 266.63 492.453 266.831C492.928 267.759 493.491 268.714 494.063 269.611C494.611 270.507 495.236 271.353 495.931 272.14C496.259 272.509 496.622 272.845 497.014 273.143C497.497 273.507 497.954 273.903 498.382 274.329C499.256 275.193 499.998 276.18 500.585 277.26L500.524 277.16C501.247 278.192 502.089 279.136 503.033 279.972C503.98 280.818 505.055 281.507 506.219 282.014C507.394 282.516 508.674 282.727 509.948 282.63C511.268 282.513 512.553 282.142 513.733 281.538C512.642 282.376 511.382 282.969 510.041 283.275C508.649 283.577 507.203 283.52 505.839 283.11C504.479 282.69 503.2 282.041 502.06 281.189C500.901 280.351 499.865 279.354 498.984 278.227L498.923 278.127C498.37 277.281 497.701 276.517 496.937 275.856C496.555 275.513 496.153 275.193 495.731 274.9C495.219 274.541 494.742 274.136 494.307 273.688C493.484 272.834 492.738 271.909 492.077 270.925C491.424 269.963 490.824 268.965 490.28 267.937L491.443 268.6L490.034 268.626C489.556 268.611 489.053 268.533 488.565 268.481C487.401 268.295 486.346 267.689 485.598 266.778C485.271 266.281 485.048 265.722 484.942 265.136C484.836 264.55 484.85 263.948 484.982 263.368C485.175 262.378 485.533 261.428 486.041 260.557L485.977 260.68C486.818 258.571 487.221 256.313 487.159 254.043C487.122 252.958 486.869 251.89 486.416 250.903C485.916 249.736 485.497 248.537 485.159 247.314C484.514 244.903 484.11 242.434 483.953 239.942C483.773 237.48 483.808 235.007 484.059 232.551Z" fill="#020202"/>
<path d="M484.494 233.042C488.02 234.852 491.661 236.649 495.302 238.303C498.882 240.035 502.628 241.399 506.484 242.374C506.935 242.462 507.394 242.507 507.854 242.509C508.271 242.497 508.657 242.376 508.69 242.266C508.697 242.197 508.706 242.285 508.762 242.113L508.907 241.716C509.003 241.447 509.124 241.188 509.271 240.943C509.557 240.438 509.925 239.984 510.36 239.6C511.243 238.871 512.308 238.399 513.44 238.234C513.992 238.143 514.553 238.112 515.112 238.142C515.726 238.225 516.318 238.431 516.85 238.748C517.784 239.371 518.576 240.185 519.171 241.137C519.766 242.09 520.151 243.158 520.301 244.27C520.646 246.347 520.685 248.464 520.417 250.552L520.424 250.391C520.494 251.761 520.443 253.135 520.272 254.496C520.19 255.233 520.01 255.956 519.737 256.646C519.661 256.851 519.56 257.045 519.437 257.225C519.372 257.323 519.317 257.419 519.241 257.517C519.145 257.618 519.044 257.717 518.939 257.811C518.704 258.022 518.422 258.172 518.116 258.25C517.805 258.309 517.487 258.312 517.176 258.257L518.267 257.757C515.398 263.846 514.245 270.603 514.934 277.299C515.129 278.905 515.49 280.702 515.677 282.421C515.888 284.16 516.037 285.912 516.086 287.67C516.134 289.431 516.094 291.193 515.965 292.95C515.832 294.722 515.587 296.439 515.355 298.155C514.923 301.632 514.244 305.073 513.324 308.454C513.07 309.345 512.732 310.211 512.315 311.039L511.638 312.166C511.446 312.503 511.277 312.852 511.131 313.212C510.551 314.684 510.322 316.272 510.463 317.849C510.877 321.02 511.865 324.474 514.047 326.759C515.126 327.909 516.566 328.654 518.128 328.871C519.746 329.066 521.387 328.913 522.941 328.421C526.161 327.359 529.192 325.793 531.921 323.781C534.707 321.783 537.362 319.607 539.867 317.267C544.919 312.594 549.669 307.605 554.09 302.331C556.343 299.703 558.467 297.068 560.689 294.358C561.917 293.055 563.388 292.005 565.019 291.267C565.82 290.891 566.64 290.56 567.477 290.273C568.332 290.063 569.175 289.775 570.043 289.631C570.914 289.513 571.782 289.332 572.658 289.267L575.293 289.152C577.045 289.185 578.793 289.336 580.525 289.604C581.387 289.75 582.26 289.851 583.113 290.035L585.655 290.665C587.347 291.09 589.016 291.603 590.655 292.199C592.332 292.697 593.895 293.469 595.514 294.111C597.142 294.74 598.687 295.535 600.243 296.311L602.58 297.47L603.164 297.76C603.341 297.84 603.493 297.923 603.664 297.993C603.999 298.131 604.349 298.232 604.707 298.293C605.411 298.427 606.135 298.397 606.825 298.206C607.515 298.016 608.152 297.669 608.687 297.194C609.21 296.677 609.63 296.066 609.924 295.392C610.096 295.058 610.228 294.705 610.317 294.341L610.468 293.802L610.53 293.245C610.643 291.71 610.354 290.171 609.694 288.781C608.128 285.875 606.023 283.295 603.489 281.179C598.27 276.803 592.584 273.017 586.534 269.889C580.387 266.537 574.65 262.483 569.439 257.808C566.837 255.467 564.381 252.971 562.083 250.332C559.768 247.708 557.618 244.944 555.643 242.056C553.657 239.176 551.844 236.18 550.213 233.085C549.416 231.528 548.614 229.974 547.915 228.371C547.552 227.576 547.184 226.778 546.848 225.985L545.751 223.713L544.666 221.433L543.354 219.291C542.9 218.589 542.512 217.835 542.005 217.173L540.462 215.202L539.691 214.214L538.813 213.328L537.054 211.556L535.103 210.008C534.463 209.479 533.776 209.01 533.051 208.606C527.362 205.046 520.557 203.719 513.947 204.883L514.143 204.807C510.933 206.502 507.757 208.339 504.649 210.25C501.543 212.171 498.495 214.188 495.566 216.361C492.6 218.475 489.845 220.87 487.34 223.514C486.105 224.832 485.082 226.335 484.31 227.969C483.913 228.762 483.722 229.642 483.754 230.529C483.786 231.415 484.041 232.279 484.494 233.042ZM484.327 233.228C483.794 232.436 483.473 231.521 483.394 230.57C483.314 229.619 483.48 228.664 483.874 227.794C484.602 226.073 485.595 224.477 486.818 223.063C489.253 220.276 491.953 217.731 494.879 215.464C497.78 213.182 500.8 211.064 503.879 209.04C506.967 207.023 510.094 205.096 513.322 203.275L513.331 203.27C513.39 203.237 513.453 203.213 513.518 203.199C517.031 202.455 520.655 202.399 524.189 203.033C527.721 203.639 531.105 204.909 534.164 206.776C534.95 207.201 535.699 207.694 536.4 208.248L538.525 209.881L540.443 211.745L541.398 212.682L542.239 213.716L543.917 215.79C544.468 216.487 544.891 217.268 545.384 218.004L546.808 220.249L547.988 222.618L549.156 224.995C549.495 225.788 549.853 226.554 550.209 227.326C550.893 228.882 551.679 230.388 552.458 231.898C554.053 234.898 555.825 237.801 557.764 240.592C559.691 243.39 561.79 246.066 564.047 248.606C566.287 251.16 568.681 253.575 571.215 255.838C576.26 260.401 581.802 264.383 587.737 267.708C593.916 270.98 599.714 274.926 605.025 279.473C607.774 281.815 610.03 284.68 611.661 287.902C612.453 289.652 612.771 291.58 612.585 293.492L612.484 294.218C612.426 294.455 612.35 294.688 612.282 294.922C612.153 295.392 611.975 295.846 611.748 296.277C611.33 297.178 610.742 297.989 610.017 298.667C609.252 299.332 608.343 299.813 607.362 300.072C606.382 300.331 605.354 300.361 604.36 300.16C603.869 300.067 603.39 299.92 602.932 299.722C602.705 299.626 602.478 299.501 602.267 299.394L601.7 299.095L599.434 297.899C597.923 297.098 596.421 296.276 594.845 295.623C593.277 294.956 591.755 294.154 590.133 293.631C588.548 293.008 586.931 292.467 585.291 292.01L582.828 291.338C582.002 291.141 581.16 291.027 580.327 290.867C578.658 290.57 576.971 290.387 575.277 290.318L572.743 290.373C571.901 290.416 571.071 290.573 570.233 290.667C566.892 291.109 563.782 292.612 561.359 294.955C559.189 297.558 556.964 300.274 554.707 302.862C550.216 308.116 545.465 313.142 540.471 317.92C537.962 320.315 535.3 322.545 532.504 324.596C529.728 326.758 526.626 328.463 523.313 329.648C521.585 330.242 519.75 330.458 517.932 330.28C516.042 330.062 514.283 329.21 512.942 327.862C511.654 326.545 510.657 324.972 510.014 323.245C509.346 321.567 508.885 319.815 508.639 318.025C508.425 316.157 508.651 314.265 509.297 312.5C509.463 312.056 509.659 311.623 509.883 311.205L510.509 310.1C510.843 309.375 511.12 308.626 511.337 307.858C512.196 304.575 512.823 301.236 513.214 297.864C514.183 291.117 514.04 284.257 512.792 277.557C512.408 274.017 512.562 270.441 513.249 266.947C513.909 263.46 515.015 260.072 516.538 256.867L517.629 256.366C517.689 256.322 517.625 256.41 517.688 256.335C517.704 256.317 517.723 256.303 517.745 256.294L517.818 256.174C517.884 256.086 517.936 255.988 517.97 255.883C518.18 255.351 518.32 254.795 518.386 254.228C518.549 252.985 518.612 251.731 518.575 250.478L518.574 250.44C518.574 250.398 518.576 250.357 518.581 250.316C518.875 248.417 518.891 246.486 518.63 244.583C518.545 243.693 518.272 242.833 517.829 242.057C517.387 241.281 516.785 240.607 516.063 240.081C515.734 239.876 515.372 239.729 514.993 239.647C514.548 239.614 514.101 239.627 513.659 239.689C512.786 239.79 511.958 240.127 511.263 240.664C510.937 240.939 510.66 241.265 510.441 241.631C510.323 241.814 510.226 242.009 510.149 242.213L510.027 242.52C509.952 242.7 509.863 242.874 509.758 243.039C509.522 243.3 509.229 243.504 508.902 243.634C508.575 243.765 508.222 243.818 507.871 243.79C507.326 243.777 506.782 243.711 506.249 243.595C504.256 243.113 502.313 242.442 500.447 241.592C498.587 240.79 496.763 239.924 494.96 239.022C491.343 237.212 487.841 235.306 484.327 233.228V233.228Z" fill="#020202"/>
<path d="M496.259 273.937C497.018 276.247 497.358 278.674 497.262 281.103C497.246 283.647 496.598 286.147 495.376 288.379C494.7 289.259 494.102 290.195 493.587 291.178C493.185 292.144 492.946 293.169 492.88 294.213C492.784 296.508 493.04 298.804 493.638 301.021C492.084 299.074 491.141 296.711 490.925 294.23C490.804 292.912 490.957 291.584 491.372 290.328C491.85 289.173 492.474 288.085 493.229 287.089C494.268 285.155 494.976 283.061 495.325 280.894C495.748 278.65 496.003 276.331 496.259 273.937Z" fill="#020202"/>
<path d="M441.906 361.125C441.441 360.396 441.045 359.626 440.724 358.824C440.39 358.012 440.156 357.163 440.026 356.295C439.846 355.329 440.021 354.331 440.519 353.484C441.126 352.639 442.042 352.068 443.067 351.894L442.888 351.943C443.285 351.751 443.615 351.446 443.837 351.065C443.905 350.93 443.931 350.777 443.912 350.627C443.9 350.545 443.878 350.465 443.846 350.389L443.687 349.998C443.398 349.273 443.292 348.488 443.379 347.712C443.465 346.937 443.743 346.195 444.185 345.552C444.641 344.914 445.243 344.394 445.94 344.036C446.544 343.751 447.173 343.523 447.819 343.356C448.151 343.275 448.443 343.077 448.641 342.798C448.677 342.71 448.686 342.614 448.669 342.52C448.645 342.382 448.599 342.249 448.531 342.126C448.461 342.03 448.412 341.92 448.387 341.803L448.381 341.775C448.113 340.564 448.127 339.308 448.422 338.104C448.594 337.454 448.89 336.843 449.293 336.305C449.724 335.762 450.275 335.327 450.903 335.033C451.441 334.793 452.006 334.619 452.585 334.513C453.001 334.425 453.401 334.272 453.77 334.06C454.069 333.901 454.31 333.65 454.456 333.344C454.576 333.047 454.595 332.718 454.511 332.409L454.454 332.2C454.438 332.14 454.434 332.077 454.443 332.016C454.61 330.938 454.946 329.892 455.438 328.919C455.919 327.936 456.611 327.072 457.465 326.388C458.317 325.699 459.346 325.266 460.434 325.139C460.96 325.068 461.492 325.046 462.022 325.071C462.545 325.103 463.057 325.211 463.574 325.279C463.664 325.291 463.746 325.336 463.803 325.406C463.861 325.476 463.89 325.565 463.885 325.655L463.882 325.694C463.79 327.678 463.975 329.666 464.431 331.6C464.862 333.542 465.523 335.426 466.402 337.211C467.253 338.992 468.301 340.671 469.527 342.218C470.735 343.76 472.071 345.197 473.522 346.513C473.65 346.633 473.746 346.783 473.802 346.95C474.111 347.857 474.305 348.799 474.378 349.755C474.48 350.819 474.295 351.892 473.84 352.86C473.684 353.123 473.512 353.376 473.325 353.619C473.101 353.837 472.866 354.053 472.622 354.249C472.357 354.396 472.083 354.536 471.806 354.665C471.537 354.76 471.261 354.833 470.981 354.885C470.458 354.978 469.927 355.013 469.397 354.99C468.91 354.937 468.431 354.864 467.947 354.796L469.445 353.354C469.615 354.331 469.691 355.323 469.673 356.315C469.667 357.367 469.482 358.41 469.126 359.399C468.704 360.586 467.83 361.557 466.695 362.102C465.59 362.535 464.379 362.624 463.222 362.358L464.837 361.067C464.789 362.047 464.582 363.013 464.227 363.928C463.86 364.927 463.229 365.808 462.401 366.477C461.521 367.161 460.427 367.511 459.314 367.464C458.814 367.45 458.316 367.389 457.827 367.281C457.371 367.154 456.93 367.002 456.485 366.859L458.042 365.899C457.871 366.943 457.543 367.955 457.07 368.901C456.585 369.94 455.802 370.81 454.822 371.404C454.304 371.688 453.734 371.865 453.146 371.924C452.558 371.982 451.964 371.921 451.4 371.745C450.894 371.588 450.401 371.391 449.926 371.156L448.648 370.354C448.499 370.261 448.387 370.118 448.333 369.95C448.039 369.119 447.662 368.319 447.208 367.562C446.751 366.774 446.221 366.024 445.681 365.275C445.126 364.531 444.532 363.817 443.903 363.135C443.279 362.459 442.597 361.784 441.906 361.125ZM442.098 360.964C442.883 361.485 443.638 362.051 444.359 362.657C445.093 363.273 445.794 363.926 446.46 364.615C447.13 365.313 447.748 366.059 448.311 366.847C448.905 367.655 449.413 368.523 449.825 369.437L449.511 369.034L450.665 369.616C451.042 369.756 451.429 369.869 451.823 369.955C452.155 370.044 452.502 370.064 452.842 370.014C453.183 369.965 453.509 369.846 453.802 369.666C454.393 369.238 454.846 368.647 455.107 367.966C455.424 367.22 455.632 366.431 455.724 365.626C455.742 365.462 455.794 365.305 455.878 365.163C455.962 365.022 456.075 364.9 456.209 364.806C456.344 364.712 456.497 364.647 456.658 364.617C456.82 364.587 456.986 364.592 457.145 364.631L457.282 364.665L458.321 364.927C458.643 364.976 458.969 364.996 459.295 364.988C459.849 365.003 460.39 364.818 460.819 364.468C461.264 364.072 461.594 363.564 461.776 362.997C461.999 362.361 462.126 361.695 462.153 361.022C462.159 360.844 462.199 360.669 462.271 360.507C462.344 360.345 462.448 360.199 462.577 360.077C462.706 359.955 462.858 359.86 463.024 359.797C463.19 359.734 463.367 359.704 463.544 359.709L463.666 359.718L463.769 359.73C464.376 359.878 465.013 359.854 465.607 359.66C465.853 359.532 466.072 359.358 466.251 359.145C466.429 358.933 466.564 358.688 466.648 358.423C466.909 357.717 467.057 356.974 467.086 356.221C467.126 355.411 467.091 354.599 466.982 353.795C466.955 353.595 466.975 353.392 467.041 353.202C467.106 353.011 467.215 352.839 467.36 352.698C467.504 352.558 467.679 352.453 467.871 352.392C468.063 352.332 468.267 352.317 468.465 352.349L468.48 352.352L469.571 352.535C469.896 352.557 470.223 352.547 470.546 352.505C470.798 352.498 471.045 352.425 471.262 352.294C471.478 352.163 471.656 351.978 471.779 351.757C472.242 350.417 472.248 348.962 471.798 347.618L472.078 348.054C470.597 346.582 469.272 344.961 468.124 343.217C466.984 341.483 466.03 339.634 465.276 337.7C464.525 335.783 463.963 333.796 463.599 331.769C463.207 329.746 463.043 327.685 463.108 325.626L463.417 326.04C462.481 325.847 461.518 325.829 460.576 325.988C459.662 326.134 458.814 326.551 458.141 327.187C457.48 327.827 456.968 328.605 456.643 329.466C456.306 330.324 456.101 331.227 456.035 332.146L455.967 331.754C456.271 332.432 456.318 333.198 456.099 333.909C455.872 334.594 455.429 335.188 454.838 335.602C453.898 336.155 452.897 336.597 451.855 336.92C451.529 337.102 451.246 337.352 451.025 337.653C450.805 337.955 450.653 338.3 450.579 338.666C450.397 339.52 450.392 340.402 450.564 341.259L450.414 340.908C450.664 341.319 450.821 341.78 450.875 342.259C450.937 342.782 450.844 343.313 450.608 343.785C450.151 344.573 449.403 345.152 448.525 345.395C447.969 345.525 447.424 345.699 446.896 345.917C446.474 346.102 446.102 346.386 445.814 346.746C445.539 347.12 445.357 347.554 445.285 348.013C445.213 348.471 445.252 348.94 445.399 349.381L445.552 349.865C445.616 350.083 445.653 350.308 445.661 350.535C445.673 351.007 445.551 351.473 445.31 351.879C444.875 352.56 444.232 353.083 443.476 353.37C443.424 353.393 443.369 353.409 443.313 353.417L443.296 353.42C442.643 353.459 442.03 353.745 441.581 354.222C441.173 354.81 440.975 355.518 441.017 356.232C441.031 357.038 441.142 357.84 441.348 358.62C441.553 359.415 441.804 360.197 442.098 360.964Z" fill="#020202"/>
<path d="M452.749 342.959C453.526 344.612 454.195 346.314 454.75 348.054C455.041 348.921 455.278 349.804 455.505 350.699C455.623 351.126 455.686 351.67 455.811 351.956C455.952 352.333 456.141 352.69 456.372 353.019C457.386 354.468 458.518 355.83 459.757 357.091L463.495 361.044C461.933 360.088 460.456 359.001 459.078 357.795C457.648 356.6 456.382 355.22 455.316 353.691C455.037 353.271 454.813 352.816 454.65 352.338C454.519 351.881 454.418 351.416 454.348 350.946C454.194 350.068 453.986 349.191 453.81 348.306C453.422 346.542 453.063 344.761 452.749 342.959Z" fill="#020202"/>
<path d="M447.08 350.701C447.79 352.094 448.348 353.56 448.744 355.072C448.848 355.449 448.945 355.829 449.024 356.213C449.112 356.531 449.243 356.835 449.413 357.118C449.776 357.75 450.2 358.344 450.68 358.893C451.625 360.053 452.685 361.152 453.73 362.271C454.785 363.383 455.852 364.494 456.883 365.669C455.532 364.889 454.254 363.991 453.062 362.984C451.848 361.989 450.726 360.885 449.711 359.686C449.188 359.062 448.735 358.381 448.36 357.657C448.165 357.26 448.025 356.838 447.946 356.402L447.79 355.271L447.08 350.701Z" fill="#020202"/>
<path d="M459.04 337.979C460.546 340.67 461.843 343.398 463.277 346.049C463.972 347.384 464.714 348.688 465.504 349.96C466.279 351.255 467.187 352.467 468.213 353.574C466.842 352.82 465.647 351.781 464.709 350.529C463.74 349.317 462.891 348.014 462.173 346.638C461.451 345.276 460.822 343.867 460.292 342.42C459.745 340.979 459.326 339.493 459.04 337.979Z" fill="#020202"/>
<path d="M577.373 374.963C576.46 379.536 575.405 384.077 574.309 388.608C573.212 393.138 572.081 397.662 570.849 402.159C569.625 406.658 568.361 411.146 567.055 415.623C566.367 417.866 565.795 420.079 565.003 422.346C564.244 424.617 563.233 426.796 561.987 428.841C559.516 433.003 556.059 436.493 551.919 439.001C547.782 441.456 543.205 443.077 538.446 443.773C533.739 444.492 528.956 444.571 524.228 444.005C523.049 443.874 521.874 443.71 520.703 443.503C519.509 443.258 518.329 442.953 517.166 442.588L513.84 441.337L510.599 439.959C493.556 432.196 477.36 422.975 461.041 413.964C456.973 411.691 452.946 409.346 448.924 406.981C447.924 406.379 446.911 405.806 445.926 405.165C444.971 404.526 443.984 403.936 442.969 403.397C440.888 402.441 438.676 401.801 436.407 401.497C431.797 400.987 427.152 400.862 422.521 401.124C421.933 401.125 421.342 401.121 420.739 401.081C420.093 401.066 419.453 400.949 418.843 400.733C418.644 400.655 418.462 400.542 418.304 400.398L417.971 400.088L417.337 399.49L416.069 398.294L411.002 393.513L410.959 393.468C410.575 393.036 410.229 392.572 409.924 392.081C409.614 391.573 409.367 391.029 409.189 390.461C409.013 389.875 408.928 389.264 408.939 388.652C408.944 387.998 409.09 387.354 409.366 386.762L409.478 387.641C408.922 387.021 408.478 386.309 408.166 385.537C407.862 384.815 407.62 384.069 407.444 383.306C407.092 381.812 406.878 380.289 406.807 378.755L406.951 379.213C406.239 378.1 405.803 376.832 405.679 375.516C405.612 374.887 405.591 374.253 405.615 373.621C405.637 372.981 405.709 372.343 405.831 371.715L406.725 372.863C404.798 372.787 402.905 372.329 401.156 371.515C400.296 371.126 399.464 370.679 398.666 370.176C397.856 369.671 397.085 369.106 396.359 368.487C396.325 368.457 396.293 368.424 396.264 368.389L396.251 368.372C395.519 367.53 394.973 366.543 394.65 365.475C394.473 364.828 394.473 364.145 394.651 363.497C394.852 362.828 395.25 362.235 395.792 361.794C396.305 361.394 396.905 361.121 397.544 360.997C398.182 360.873 398.841 360.901 399.467 361.079L402.266 361.763L413.458 364.53L412.052 366.027C411.559 364.484 411.349 362.864 411.432 361.245C411.494 360.413 411.649 359.59 411.894 358.792C412.145 357.874 412.639 357.041 413.324 356.381C414.125 355.677 415.172 355.319 416.236 355.387C417.118 355.454 417.98 355.677 418.784 356.044C420.204 356.706 421.546 357.523 422.786 358.48C424 359.384 425.151 360.35 426.27 361.27L427.093 361.924C427.329 362.092 427.577 362.242 427.836 362.371C428.418 362.648 429.028 362.865 429.654 363.017C432.403 363.62 435.217 363.876 438.03 363.778L438.086 363.777C438.165 363.777 438.244 363.785 438.322 363.801C441.301 364.523 444.097 365.857 446.531 367.72C448.89 369.48 451.092 371.443 453.109 373.586C455.114 375.701 456.997 377.928 458.749 380.256C459.476 381.253 460.438 382.056 461.549 382.592L465.426 384.36C470.635 386.699 475.879 388.952 481.156 391.118C486.337 393.365 491.708 395.144 497.205 396.436L497.274 396.45L497.329 396.463C506.05 398.967 514.761 401.506 523.463 404.079L522.507 404.658L526.708 386.105L530.997 367.571C531.004 367.539 531.024 367.511 531.052 367.494C531.079 367.476 531.113 367.47 531.145 367.477C531.177 367.483 531.205 367.503 531.223 367.53C531.242 367.557 531.248 367.591 531.242 367.623L527.668 386.308L524.005 404.975C523.967 405.171 523.852 405.345 523.686 405.456C523.519 405.568 523.315 405.609 523.119 405.571L523.073 405.56L523.05 405.554C514.276 403.239 505.513 400.885 496.761 398.492L496.885 398.519C494.006 397.989 491.172 397.24 488.407 396.28C485.667 395.364 482.965 394.368 480.279 393.337C474.91 391.274 469.628 389.02 464.387 386.677L460.444 384.895C458.962 384.185 457.676 383.124 456.698 381.804C454.999 379.562 453.173 377.418 451.231 375.383C449.315 373.361 447.227 371.51 444.991 369.85C442.861 368.225 440.42 367.055 437.82 366.413L438.111 366.436C435.045 366.527 431.979 366.219 428.991 365.519C428.192 365.315 427.416 365.028 426.677 364.662C426.281 364.459 425.902 364.225 425.544 363.96C425.224 363.715 424.938 363.476 424.648 363.236C423.508 362.281 422.415 361.347 421.28 360.486C420.201 359.635 419.033 358.904 417.796 358.306C417.265 358.053 416.694 357.892 416.109 357.832C415.902 357.81 415.693 357.83 415.494 357.89C415.296 357.951 415.111 358.051 414.951 358.184C414.235 359.103 413.837 360.23 413.815 361.395C413.739 362.718 413.899 364.044 414.288 365.31L414.293 365.326C414.355 365.525 414.363 365.737 414.315 365.94C414.268 366.143 414.167 366.33 414.023 366.481C413.879 366.632 413.698 366.742 413.497 366.799C413.297 366.857 413.085 366.859 412.883 366.807L401.719 363.931L398.93 363.203C398.633 363.1 398.316 363.07 398.005 363.115C397.694 363.16 397.398 363.278 397.142 363.461C396.917 363.633 396.753 363.872 396.672 364.143C396.59 364.415 396.596 364.705 396.688 364.972C396.927 365.748 397.323 366.467 397.85 367.084L397.742 366.97C398.375 367.521 399.046 368.028 399.751 368.484C400.463 368.948 401.206 369.363 401.975 369.727C403.476 370.457 405.106 370.883 406.772 370.981L406.779 370.981C407.031 370.993 407.268 371.104 407.438 371.29C407.609 371.477 407.698 371.723 407.686 371.975C407.684 372.027 407.677 372.079 407.667 372.129C407.561 372.652 407.491 373.182 407.459 373.714C407.425 374.254 407.429 374.795 407.473 375.334C407.541 376.367 407.852 377.37 408.381 378.26L408.39 378.274C408.473 378.408 408.52 378.561 408.525 378.718C408.559 380.139 408.722 381.554 409.015 382.944C409.232 384.273 409.766 385.529 410.572 386.608L410.577 386.613C410.679 386.732 410.744 386.878 410.763 387.034C410.782 387.189 410.755 387.347 410.684 387.487C410.514 387.871 410.419 388.284 410.404 388.704C410.386 389.163 410.439 389.622 410.56 390.064C410.693 390.521 410.88 390.961 411.119 391.373C411.369 391.798 411.655 392.2 411.974 392.575L411.932 392.531L416.926 397.445L418.174 398.673L418.798 399.287C418.897 399.382 419.017 399.508 419.098 399.577C419.158 399.628 419.226 399.668 419.299 399.695C420.351 399.978 421.44 400.102 422.529 400.064C427.207 399.909 431.89 400.099 436.54 400.632C438.892 400.967 441.181 401.65 443.332 402.661C444.37 403.221 445.379 403.834 446.354 404.496C447.317 405.134 448.328 405.716 449.318 406.323C453.313 408.703 457.387 410.958 461.466 413.201C469.615 417.704 477.86 422.028 486.2 426.173C494.525 430.323 502.893 434.437 511.42 438.049L514.619 439.379L517.841 440.563L519.437 440.998C519.971 441.163 520.517 441.288 521.069 441.372C522.193 441.561 523.327 441.71 524.464 441.827C529.005 442.307 533.587 442.232 538.11 441.603C542.603 440.994 546.933 439.512 550.856 437.24C554.745 434.936 558.005 431.708 560.348 427.843C562.806 424.03 564.023 419.585 565.478 415.141C566.886 410.707 568.256 406.26 569.588 401.801C572.239 392.88 574.812 383.929 577.128 374.909C577.132 374.893 577.139 374.878 577.149 374.865C577.159 374.851 577.171 374.84 577.185 374.832C577.199 374.823 577.215 374.818 577.231 374.815C577.247 374.813 577.264 374.813 577.28 374.817C577.311 374.825 577.338 374.845 577.355 374.872C577.373 374.899 577.379 374.932 577.373 374.963Z" fill="#020202"/>
<path d="M530.428 406.968L523.076 405.416C522.913 405.382 522.77 405.284 522.679 405.144C522.588 405.005 522.557 404.835 522.591 404.672C522.625 404.509 522.723 404.366 522.863 404.275C523.003 404.184 523.173 404.152 523.336 404.186C523.37 404.194 523.403 404.204 523.436 404.217L530.428 406.968Z" fill="#020202"/>
<path d="M413.17 365.669C415.449 365.736 417.717 366.012 419.946 366.492C421.051 366.728 422.155 366.969 423.247 367.26C424.349 367.524 425.413 367.897 426.538 368.121C425.399 368.346 424.231 368.38 423.081 368.223C421.945 368.115 420.815 367.947 419.697 367.719C417.45 367.289 415.26 366.601 413.17 365.669Z" fill="#020202"/>
<path d="M406.749 371.922C408.504 372.057 410.21 372.564 411.754 373.409C412.541 373.821 413.272 374.332 413.929 374.93C414.632 375.51 415.144 376.288 415.398 377.164C414.769 376.604 414.08 376.116 413.342 375.711C412.626 375.302 411.908 374.892 411.164 374.512C409.642 373.738 408.167 372.872 406.749 371.922Z" fill="#020202"/>
<path d="M407.666 378.737C408.926 379.172 410.1 379.826 411.133 380.669C412.197 381.473 413.108 382.461 413.825 383.586C412.564 383.153 411.39 382.498 410.358 381.653C409.296 380.847 408.385 379.86 407.666 378.737Z" fill="#020202"/>
<path d="M410.025 387.124C411.14 387.422 412.182 387.943 413.089 388.656C414.024 389.332 414.81 390.194 415.398 391.187C414.282 390.892 413.239 390.37 412.334 389.655C411.401 388.977 410.615 388.116 410.025 387.124Z" fill="#020202"/>
<path d="M420.509 396.298C420.121 396.108 419.789 395.819 419.549 395.459C419.309 395.1 419.168 394.683 419.142 394.251C419.053 393.393 419.156 392.525 419.444 391.711L419.428 391.76C419.516 391.343 419.563 390.919 419.566 390.492C419.606 390.178 419.547 389.86 419.399 389.58C419.048 389.159 418.787 388.669 418.634 388.142C418.464 387.644 418.377 387.12 418.376 386.594C418.365 386.045 418.48 385.5 418.712 385.003C418.964 384.625 419.196 384.233 419.404 383.828C419.694 382.971 419.792 382.061 419.692 381.161C420.153 382.046 420.315 383.056 420.156 384.041C420.03 384.507 419.858 384.96 419.642 385.392C419.529 385.767 419.489 386.16 419.526 386.549C419.59 387.352 419.872 388.121 420.341 388.775C420.697 389.293 420.847 389.924 420.764 390.547C420.716 391.056 420.615 391.559 420.464 392.048L420.457 392.071L420.448 392.097C420.304 392.444 420.154 392.788 420.046 393.144C419.94 393.496 419.87 393.858 419.835 394.224C419.785 394.598 419.82 394.978 419.937 395.337C420.053 395.696 420.249 396.025 420.509 396.298Z" fill="#020202"/>
<path d="M409.207 364.668C407.4 363.14 405.65 361.556 403.911 359.963C402.183 358.358 400.453 356.756 398.769 355.109C395.368 351.848 392.053 348.504 388.778 345.122C388.666 345.006 388.578 344.87 388.518 344.72C388.459 344.57 388.43 344.41 388.433 344.249C388.435 344.088 388.469 343.929 388.533 343.781C388.597 343.634 388.69 343.5 388.806 343.388L388.867 343.332L388.887 343.315C390.472 341.983 392.083 340.685 393.698 339.39L393.71 339.38C393.952 339.186 394.259 339.092 394.568 339.116C394.878 339.14 395.166 339.281 395.376 339.509C398.413 342.841 401.372 346.243 404.287 349.687C405.747 351.407 407.184 353.147 408.598 354.908C410.015 356.667 411.414 358.442 412.764 360.263C411.065 358.763 409.416 357.217 407.784 355.655C406.155 354.091 404.544 352.511 402.951 350.914C399.769 347.715 396.631 344.477 393.571 341.166L395.249 341.286C393.66 342.611 392.068 343.934 390.449 345.223L390.558 343.417C393.796 346.834 396.994 350.29 400.107 353.828C401.679 355.582 403.205 357.379 404.734 359.174C406.251 360.98 407.758 362.797 409.207 364.668Z" fill="#020202"/>
<path d="M400.851 333.348C399.73 330.879 398.826 328.317 398.15 325.691C397.419 323.079 396.92 320.408 396.657 317.709C397.781 320.177 398.685 322.739 399.359 325.366C400.087 327.979 400.586 330.649 400.851 333.348Z" fill="#020202"/>
<path d="M412.297 338.503C413.227 336.949 414.356 335.522 415.655 334.26C416.915 332.959 418.342 331.83 419.898 330.902C418.97 332.457 417.841 333.884 416.54 335.145C415.277 336.444 413.851 337.572 412.297 338.503Z" fill="#020202"/>
<path d="M421.47 350.298C423.093 349.857 424.769 349.647 426.451 349.672C428.132 349.644 429.809 349.855 431.431 350.298C429.809 350.741 428.132 350.952 426.451 350.924C424.769 350.949 423.093 350.738 421.47 350.298Z" fill="#020202"/>
<path d="M334.625 444.57C334.761 443.755 334.968 442.953 335.242 442.173C335.39 441.774 335.579 441.392 335.805 441.032C336.044 440.605 336.434 440.283 336.898 440.129C337.16 440.083 337.429 440.106 337.679 440.196C337.929 440.286 338.151 440.44 338.323 440.642C338.637 440.961 338.911 441.318 339.136 441.705C339.561 442.44 339.927 443.207 340.231 443.999C341.377 447.126 342.203 450.361 342.696 453.654C343.473 460.235 343.508 466.882 342.799 473.471C342.453 476.755 342.002 480.031 341.327 483.284C340.975 484.907 340.58 486.526 340.073 488.133C339.61 489.83 338.869 491.438 337.88 492.893C337.541 493.346 337.103 493.716 336.6 493.975C336.26 494.131 335.884 494.192 335.512 494.154C335.161 494.107 334.827 493.976 334.536 493.774C333.78 493.142 333.211 492.315 332.891 491.382C332.297 489.805 331.849 488.177 331.552 486.519C330.987 483.278 330.613 480.007 330.431 476.722C331.165 479.918 331.798 483.13 332.746 486.231C333.161 487.766 333.709 489.261 334.384 490.7C334.644 491.304 335.038 491.84 335.537 492.268C335.728 492.348 335.674 492.326 335.793 492.275C335.997 492.124 336.172 491.938 336.311 491.726C337.057 490.405 337.614 488.986 337.968 487.511C338.39 485.983 338.716 484.408 338.999 482.825C339.585 479.66 340.009 476.448 340.307 473.226C340.647 470.007 340.846 466.772 340.94 463.539C341.06 460.317 341 457.09 340.762 453.875C340.65 452.27 340.377 450.717 340.104 449.106C339.825 447.512 339.498 445.928 339.073 444.386C338.877 443.621 338.621 442.873 338.307 442.149C338.006 441.486 337.525 440.705 337.025 440.777C336.461 440.864 335.945 441.66 335.585 442.329C335.201 443.047 334.88 443.796 334.625 444.57Z" fill="#020202"/>
<path d="M571.032 399.486L578.022 404.79L581.634 407.316C582.844 408.146 584.004 409.044 585.269 409.79C587.763 411.331 590.18 412.983 592.771 414.346C594.059 415.037 595.294 415.823 596.607 416.464L600.53 418.407C605.804 420.903 611.253 423.01 616.833 424.712C622.412 426.471 628.238 427.32 634.086 427.226L633.732 427.62C633.764 424.211 633.745 420.801 633.7 417.392C633.669 413.983 633.548 410.574 633.471 407.165L633.182 396.937L632.992 386.709L634.857 387.582C632.679 389.226 630.313 390.606 627.81 391.692L625.962 392.497L624.073 393.189C622.824 393.69 621.52 394 620.238 394.393C615.064 395.748 609.733 396.417 604.384 396.383L600.393 396.292C599.066 396.219 597.748 396.03 596.427 395.903C593.774 395.708 591.187 395.094 588.578 394.66C585.985 394.142 583.442 393.401 580.892 392.734L573.413 390.181L574.177 389.776C573.17 392.941 572.126 396.15 571.032 399.486ZM570.792 399.556C571.494 396.291 572.245 392.901 573.034 389.465L573.166 388.889L573.798 389.061L581.33 391.102L585.145 391.879C586.418 392.119 587.667 392.488 588.957 392.623C591.524 392.944 594.068 393.448 596.65 393.533C597.937 393.611 599.222 393.723 600.507 393.776L604.364 393.793C609.49 393.718 614.591 393.07 619.573 391.86C620.799 391.512 622.056 391.245 623.249 390.794L625.059 390.177L626.826 389.453C629.149 388.504 631.354 387.29 633.4 385.837L635.307 384.423L635.265 386.709L635.075 396.937L634.785 407.165C634.709 410.574 634.587 413.983 634.556 417.392C634.511 420.801 634.492 424.211 634.524 427.62L634.528 427.989L634.17 428.014C631.189 428.184 628.199 428.106 625.231 427.781L623.01 427.542L620.803 427.197C619.322 427.001 617.877 426.641 616.415 426.342C610.589 425.024 604.935 423.036 599.566 420.419L595.591 418.372C594.261 417.7 593.014 416.878 591.732 416.122C589.144 414.646 586.733 412.897 584.302 411.191C583.065 410.368 581.925 409.412 580.769 408.481L577.316 405.678C575.061 403.646 572.855 401.538 570.792 399.556Z" fill="#020202"/>
<path d="M611.706 293.316C614.288 295.081 616.702 297.082 618.916 299.291C621.15 301.48 623.266 303.787 625.252 306.202C629.2 311.061 632.75 316.231 635.866 321.661C642.064 332.543 646.9 344.147 650.264 356.21C653.528 368.25 655.869 380.522 657.266 392.918C658.81 405.27 659.741 417.678 660.058 430.143C660.423 442.6 660.151 455.067 659.245 467.495C659.162 469.078 659.019 470.547 659.083 472.034C659.121 473.521 659.276 475.002 659.55 476.464C660.123 479.38 661.164 482.184 662.633 484.767C664.12 487.325 666.023 489.618 668.263 491.551C668.828 492.023 669.415 492.47 670.008 492.907L670.929 493.517L671.392 493.825C671.528 493.906 671.658 493.996 671.783 494.093C671.94 494.279 671.762 493.96 672.18 494.576C673.262 495.127 670.77 497.158 671.041 496.551C670.925 496.558 670.808 496.553 670.692 496.534L670.54 496.508L665.98 495.242C660.071 493.651 653.997 492.755 647.88 492.572C641.769 492.365 635.663 493.108 629.78 494.775C626.846 495.606 624.041 496.799 621.056 497.874C619.599 498.452 618.059 498.824 616.567 499.307C615.051 499.721 613.511 500.073 611.967 500.374C608.857 500.996 605.665 501.09 602.524 500.654C601.739 500.53 600.964 500.353 600.203 500.123C599.446 499.876 598.712 499.564 598.009 499.188C596.573 498.472 595.378 497.35 594.574 495.962C594.559 495.933 594.556 495.9 594.565 495.869C594.574 495.838 594.594 495.811 594.622 495.795C594.65 495.779 594.683 495.775 594.715 495.783C594.746 495.791 594.773 495.81 594.79 495.838L594.801 495.855C595.659 497.112 596.86 498.097 598.26 498.694C598.947 499.014 599.66 499.273 600.392 499.468C601.131 499.648 601.88 499.776 602.636 499.853C605.682 500.091 608.748 499.848 611.718 499.132C613.207 498.779 614.69 498.377 616.151 497.915C617.594 497.382 619.071 496.966 620.481 496.34C623.301 495.201 626.172 493.822 629.21 492.901C635.266 491.024 641.576 490.098 647.916 490.158C654.241 490.22 660.534 491.059 666.654 492.656C667.418 492.849 668.179 493.057 668.933 493.275C669.658 493.479 670.509 493.745 671.075 493.884L671.067 493.882C670.999 493.876 670.93 493.875 670.862 493.878C671.18 493.284 668.755 495.274 669.788 495.781C670.183 496.353 669.959 496.01 670.082 496.162C670.136 496.204 670.046 496.139 669.99 496.106L669.482 495.769L668.462 495.09C667.805 494.606 667.156 494.108 666.531 493.584C664.049 491.455 661.961 488.907 660.362 486.056C658.79 483.205 657.69 480.118 657.107 476.916C656.831 475.318 656.682 473.701 656.664 472.08C656.617 470.459 656.797 468.827 656.896 467.31C657.958 454.957 658.554 442.574 658.686 430.16C658.834 417.744 658.09 405.333 656.46 393.023C656.004 389.954 655.491 386.894 654.995 383.833C654.362 380.796 653.783 377.75 653.107 374.727C651.689 368.694 650.166 362.688 648.265 356.803C646.482 350.882 644.366 345.074 642.09 339.337C639.816 333.596 637.177 328.007 634.19 322.603C631.244 317.176 627.913 311.967 624.221 307.016C620.563 302.025 616.314 297.495 611.568 293.524L611.56 293.518C611.534 293.498 611.518 293.469 611.514 293.437C611.509 293.405 611.517 293.373 611.536 293.347C611.555 293.321 611.583 293.303 611.615 293.297C611.647 293.291 611.679 293.298 611.706 293.316L611.706 293.316Z" fill="#020202"/>
<path d="M339.959 445.169C335.917 445.384 331.864 445.316 327.831 444.966C323.786 444.647 319.765 444.075 315.792 443.255C311.8 442.454 307.874 441.357 304.045 439.974C300.211 438.553 296.513 436.79 292.997 434.705C292.13 434.163 291.206 433.697 290.385 433.092L287.903 431.299C286.249 430.083 284.588 428.977 282.931 427.81L273.002 420.873L253.221 406.9L253.4 407.005C252.908 406.789 252.397 406.619 251.873 406.499C251.448 406.385 251.003 406.363 250.568 406.432C250.292 406.54 250.329 406.492 250.24 406.806C250.174 406.91 250.237 407.194 250.213 407.383L250.338 408.128L250.339 408.137C250.393 408.46 250.33 408.792 250.16 409.072C250.044 409.292 249.955 409.526 249.895 409.768C249.824 410.052 249.786 410.343 249.781 410.636C249.784 411.252 249.904 411.861 250.136 412.432L249.725 413.852C249.877 413.729 249.802 413.787 249.825 413.767L249.808 413.801C249.784 413.853 249.768 413.907 249.758 413.962C249.725 414.146 249.722 414.334 249.751 414.519C249.829 415.024 249.982 415.516 250.205 415.976L250.236 416.909C250.278 416.779 250.223 416.998 250.237 417.087C250.238 417.222 250.249 417.357 250.271 417.49C250.322 417.799 250.408 418.101 250.527 418.391C250.79 419.041 251.133 419.655 251.546 420.221L251.622 421.53C251.648 421.486 251.669 421.439 251.685 421.391C251.689 421.376 251.69 421.379 251.69 421.379C251.69 421.393 251.689 421.407 251.686 421.421C251.687 421.489 251.692 421.557 251.701 421.625C251.738 421.822 251.796 422.015 251.872 422.201C252.067 422.656 252.308 423.089 252.592 423.494C252.895 423.935 253.225 424.356 253.58 424.757C253.934 425.165 254.385 425.597 254.783 426.016L259.71 431.08L269.564 441.21L289.263 461.482L289.293 461.513C289.315 461.536 289.335 461.561 289.355 461.586C291.027 463.836 292.594 466.117 294.086 468.477C295.614 470.836 296.951 473.313 298.083 475.886C298.627 477.034 299.371 478.076 300.279 478.965C303.192 481.71 306.929 483.417 310.911 483.822C313.556 484.062 316.21 483.487 318.519 482.175L319.379 481.675L320.152 481.045C320.664 480.634 321.19 480.201 321.732 479.73C322.251 479.255 322.808 478.822 323.396 478.434C323.962 478.017 324.559 477.644 325.182 477.318C330.142 474.673 335.878 473.87 341.374 475.049C335.921 474.173 330.333 475.194 325.543 477.942C324.955 478.277 324.394 478.658 323.865 479.08C323.315 479.473 322.797 479.908 322.316 480.383C321.833 480.835 321.311 481.301 320.766 481.775L319.959 482.48L319.053 483.058C316.594 484.594 313.714 485.318 310.821 485.127C307.951 484.928 305.164 484.076 302.673 482.637C300.048 481.286 297.903 479.158 296.53 476.544C295.379 474.091 294.035 471.734 292.509 469.495C291.001 467.224 289.389 464.991 287.721 462.851L287.812 462.954L267.904 442.82L257.954 432.746L252.979 427.709C252.562 427.276 252.154 426.898 251.731 426.421C251.3 425.942 250.899 425.437 250.53 424.909C250.134 424.35 249.804 423.747 249.548 423.112C249.404 422.75 249.301 422.374 249.238 421.991C249.207 421.766 249.195 421.539 249.202 421.313C249.209 421.18 249.224 421.047 249.248 420.916C249.262 420.84 249.28 420.764 249.302 420.689C249.336 420.569 249.382 420.453 249.441 420.342L249.517 421.651C248.989 420.915 248.555 420.116 248.225 419.272C248.046 418.817 247.918 418.342 247.843 417.858C247.803 417.595 247.784 417.329 247.786 417.062C247.782 416.719 247.836 416.377 247.944 416.051L247.975 416.984C247.651 416.292 247.435 415.553 247.334 414.795C247.277 414.347 247.295 413.893 247.387 413.451C247.441 413.194 247.528 412.945 247.646 412.711C247.712 412.58 247.788 412.454 247.874 412.336C247.993 412.17 248.136 412.024 248.298 411.9L247.887 413.32C247.543 412.451 247.372 411.524 247.381 410.589C247.392 410.109 247.459 409.631 247.581 409.166C247.707 408.656 247.914 408.17 248.194 407.725L248.017 408.669C247.956 408.304 247.891 407.946 247.845 407.574C247.812 407.147 247.84 406.718 247.926 406.299C248.019 405.775 248.266 405.29 248.636 404.906C249.006 404.523 249.481 404.258 250.002 404.146C250.793 403.988 251.609 404.012 252.39 404.216C253.078 404.377 253.748 404.606 254.391 404.9C254.447 404.925 254.502 404.956 254.553 404.992L254.57 405.005L274.279 419.151L284.095 426.272C285.715 427.468 287.39 428.643 288.964 429.856L291.353 431.668C292.145 432.281 293.026 432.747 293.859 433.294C297.248 435.409 300.822 437.214 304.535 438.688C312.05 441.561 319.895 443.485 327.886 444.417C331.891 444.914 335.923 445.165 339.959 445.169Z" fill="#020202"/>
<path d="M249.177 408.399C249.617 408.034 250.183 407.858 250.752 407.908C251.32 407.935 251.873 408.093 252.369 408.369C252.856 408.629 253.299 408.964 253.681 409.362C253.859 409.569 254.045 409.766 254.211 409.978C254.355 410.211 254.515 410.426 254.638 410.67C253.712 410.097 252.916 409.46 252.03 409.013C251.603 408.774 251.149 408.588 250.677 408.46C250.188 408.326 249.675 408.305 249.177 408.399Z" fill="#020202"/>
<path d="M249.011 412.876C249.054 412.583 249.368 412.399 249.646 412.316C249.932 412.26 250.224 412.252 250.513 412.29C251.064 412.368 251.599 412.539 252.093 412.795C253.065 413.279 253.931 413.953 254.638 414.777C254.136 414.593 253.645 414.379 253.167 414.138L251.773 413.449C251.326 413.216 250.865 413.011 250.392 412.834C250.167 412.744 249.928 412.688 249.686 412.668C249.565 412.646 249.44 412.653 249.323 412.69C249.206 412.726 249.099 412.79 249.011 412.876Z" fill="#020202"/>
<path d="M249.09 416.48C249.353 416.186 249.697 415.976 250.08 415.879C250.462 415.781 250.865 415.8 251.237 415.932C251.982 416.118 252.687 416.442 253.313 416.887C253.934 417.306 254.508 417.792 255.023 418.335C255.546 418.865 256.017 419.443 256.429 420.062C255.798 419.655 255.242 419.183 254.653 418.756C254.072 418.321 253.502 417.881 252.908 417.491C252.337 417.085 251.723 416.741 251.077 416.466C250.764 416.331 250.429 416.252 250.088 416.236C249.736 416.193 249.381 416.28 249.09 416.48Z" fill="#020202"/>
<path d="M250.531 420.936C250.535 420.765 250.581 420.597 250.665 420.447C250.75 420.298 250.869 420.171 251.014 420.079C251.331 419.908 251.697 419.849 252.052 419.914C252.704 420.031 253.319 420.298 253.851 420.693C254.883 421.424 255.76 422.353 256.429 423.426C255.876 423.106 255.408 422.707 254.905 422.357C254.411 421.997 253.935 421.623 253.441 421.295C252.98 420.95 252.473 420.669 251.936 420.459C251.687 420.337 251.399 420.318 251.135 420.408C250.872 420.497 250.655 420.687 250.531 420.936Z" fill="#020202"/>
<path d="M329.846 475.677C326.536 476.398 323.542 478.157 321.301 480.697C312.913 488.954 299.808 482.139 297.318 476.241C294.828 470.344 288.537 462.218 288.537 462.218C287.036 460.739 285.02 458.717 282.718 456.39C291.794 448.726 288.727 430.862 288.727 430.862C282.496 418.815 267.737 415.808 267.737 415.808C269.609 430.818 261.963 435.19 261.962 435.19C256.687 429.77 252.825 425.785 252.825 425.785C249.745 422.378 250.531 420.936 250.531 420.936C248.5 418.053 249.09 416.48 249.09 416.48C247.845 413.728 249.011 412.876 249.011 412.876C248.685 412.169 248.53 411.396 248.559 410.618C248.588 409.84 248.8 409.079 249.177 408.399L249.09 407.525L238.28 417.718C236.893 419.026 235.89 420.689 235.382 422.526C234.873 424.364 234.879 426.306 235.397 428.14C238.164 437.941 245.768 456.151 264.816 461.432C264.816 461.432 289.979 474.275 270.845 482.401L297.056 508.612C297.056 508.612 298.148 503.151 303.062 501.938C307.617 500.74 311.658 498.091 314.572 494.391C315.607 493.112 316.729 491.619 317.931 489.878C319.755 487.204 321.913 484.772 324.35 482.642C326.507 480.779 328.909 479.157 330.431 479.518L329.846 475.677Z" fill="#020202"/>
<path d="M324.501 444.309C324.501 444.309 324.382 444.826 324.209 445.73" stroke="#020202" stroke-width="2.18425" stroke-linecap="round" stroke-linejoin="round"/>
<path d="M323.74 448.464C322.739 455.03 321.658 467.708 326.824 474.041" stroke="#020202" stroke-width="2.18425" stroke-linecap="round" stroke-linejoin="round" stroke-dasharray="2.78 2.78"/>
<path d="M327.774 475.064C328.127 475.398 328.505 475.705 328.904 475.984" stroke="#020202" stroke-width="2.18425" stroke-linecap="round" stroke-linejoin="round"/>
<path d="M327.461 465.189C328.175 465.945 329.019 466.566 329.953 467.023C330.398 467.205 330.88 467.279 331.359 467.239C331.881 467.176 332.392 467.041 332.878 466.838C332.515 467.291 332.022 467.623 331.465 467.789C330.878 467.964 330.248 467.932 329.681 467.698C329.139 467.466 328.66 467.109 328.283 466.656C327.908 466.231 327.627 465.731 327.461 465.189Z" fill="#020202"/>
<path d="M490.23 249.517C490.648 248.745 491.191 248.049 491.837 247.455C492.472 246.85 493.179 246.324 493.941 245.89C494.72 245.46 495.557 245.146 496.427 244.958C497.303 244.776 498.211 244.812 499.071 245.061C498.271 245.298 497.484 245.575 496.712 245.893C495.976 246.234 495.256 246.584 494.55 246.983C493.127 247.771 491.767 248.671 490.23 249.517Z" fill="#020202"/>
<path d="M495.473 256.026C496.039 256.006 496.575 255.767 496.969 255.36C497.362 254.952 497.582 254.408 497.582 253.842C497.582 253.275 497.362 252.731 496.969 252.323C496.575 251.916 496.039 251.677 495.473 251.657C494.906 251.677 494.37 251.916 493.976 252.323C493.583 252.731 493.363 253.275 493.363 253.842C493.363 254.408 493.583 254.952 493.976 255.36C494.37 255.767 494.906 256.006 495.473 256.026Z" fill="#020202"/>
<path d="M513.733 252.007C514.216 252.385 514.765 252.671 515.352 252.849C515.572 252.833 515.553 252.845 515.653 252.668C515.715 252.581 515.764 252.485 515.798 252.383C515.856 252.26 515.896 252.13 515.918 251.996C516.01 251.708 516.079 251.414 516.124 251.115C516.217 250.817 516.233 250.49 516.314 250.173C516.434 249.504 516.608 248.847 516.834 248.206C517.092 248.853 517.246 249.537 517.29 250.232C517.361 250.943 517.302 251.662 517.118 252.352C517.07 252.544 516.998 252.729 516.904 252.903C516.762 253.227 516.532 253.506 516.24 253.708C516.109 253.773 515.973 253.829 515.833 253.874C515.57 253.927 515.297 253.893 515.055 253.777C514.688 253.605 514.381 253.33 514.168 252.985C513.966 252.688 513.819 252.356 513.733 252.007Z" fill="#020202"/>
<path d="M511.723 246.371C511.401 245.753 511.228 245.066 511.221 244.369C511.168 243.585 511.411 242.81 511.901 242.197C512.222 241.862 512.645 241.644 513.104 241.578C513.512 241.542 513.922 241.606 514.299 241.766C514.626 241.916 514.933 242.104 515.216 242.325C515.471 242.562 515.705 242.819 515.917 243.095C515.585 243.042 515.258 242.968 514.936 242.872C514.625 242.815 514.321 242.747 514.044 242.71C513.83 242.657 513.607 242.659 513.395 242.716C513.183 242.773 512.988 242.883 512.83 243.035C512.511 243.461 512.292 243.954 512.189 244.476L511.723 246.371Z" fill="#020202"/>
<path d="M491.891 265.636C492.484 265.258 493.117 264.945 493.779 264.702C494.06 264.597 494.319 264.486 494.587 264.367C494.9 264.208 495.197 264.019 495.473 263.802C495.54 264.015 495.556 264.241 495.52 264.462C495.484 264.682 495.396 264.891 495.264 265.072C495.007 265.429 494.653 265.704 494.243 265.865C493.862 266.014 493.452 266.074 493.044 266.041C492.628 266.02 492.228 265.88 491.891 265.636Z" fill="#020202"/>
<path d="M496.469 269.568C498.545 268.378 500.732 267.39 502.998 266.62C503.112 266.578 503.236 266.571 503.354 266.599C503.472 266.627 503.579 266.688 503.662 266.776C503.745 266.864 503.801 266.975 503.822 267.094C503.844 267.213 503.829 267.336 503.782 267.448C503.301 268.603 502.711 269.711 502.019 270.754C501.67 271.287 501.266 271.783 500.815 272.233C500.579 272.467 500.309 272.664 500.014 272.819C499.857 272.897 499.684 272.94 499.508 272.944C499.424 272.937 499.341 272.913 499.266 272.873C499.191 272.834 499.125 272.779 499.072 272.713C499.199 272.773 499.343 272.787 499.479 272.753C499.615 272.719 499.735 272.639 499.819 272.526C500.019 272.319 500.192 272.088 500.334 271.838C500.638 271.328 500.916 270.802 501.164 270.263C501.669 269.18 502.165 268.069 502.628 266.971L503.411 267.798C501.159 268.61 498.834 269.203 496.469 269.568Z" fill="#020202"/>
<path d="M604.162 499.016C604.649 498.999 605.111 498.793 605.449 498.443C605.788 498.092 605.977 497.624 605.977 497.137C605.977 496.649 605.788 496.181 605.449 495.831C605.111 495.48 604.649 495.275 604.162 495.258C603.675 495.275 603.214 495.48 602.875 495.831C602.537 496.181 602.347 496.649 602.347 497.137C602.347 497.624 602.537 498.092 602.875 498.443C603.214 498.793 603.675 498.999 604.162 499.016Z" fill="#020202"/>
<path d="M614.298 494.791C614.785 494.774 615.247 494.569 615.585 494.218C615.924 493.868 616.113 493.399 616.113 492.912C616.113 492.425 615.924 491.956 615.585 491.606C615.247 491.255 614.785 491.05 614.298 491.033C613.811 491.05 613.35 491.255 613.011 491.606C612.672 491.956 612.483 492.425 612.483 492.912C612.483 493.399 612.672 493.868 613.011 494.218C613.35 494.569 613.811 494.774 614.298 494.791Z" fill="#020202"/>
<path d="M624.393 489.891C624.88 489.874 625.342 489.669 625.68 489.319C626.019 488.968 626.208 488.5 626.208 488.012C626.208 487.525 626.019 487.057 625.68 486.706C625.342 486.356 624.88 486.15 624.393 486.134C623.906 486.15 623.444 486.356 623.106 486.706C622.767 487.057 622.578 487.525 622.578 488.012C622.578 488.5 622.767 488.968 623.106 489.319C623.444 489.669 623.906 489.874 624.393 489.891Z" fill="#020202"/>
<path d="M636.874 487.106C637.361 487.09 637.823 486.884 638.161 486.534C638.5 486.183 638.689 485.715 638.689 485.228C638.689 484.74 638.5 484.272 638.161 483.921C637.823 483.571 637.361 483.365 636.874 483.349C636.387 483.365 635.925 483.571 635.587 483.921C635.248 484.272 635.059 484.74 635.059 485.228C635.059 485.715 635.248 486.183 635.587 486.534C635.925 486.884 636.387 487.09 636.874 487.106Z" fill="#020202"/>
<path d="M648.167 487.104C648.654 487.087 649.116 486.882 649.455 486.531C649.793 486.18 649.982 485.712 649.982 485.225C649.982 484.737 649.793 484.269 649.455 483.919C649.116 483.568 648.654 483.363 648.167 483.346C647.68 483.363 647.219 483.568 646.88 483.919C646.542 484.269 646.352 484.737 646.352 485.225C646.352 485.712 646.542 486.18 646.88 486.531C647.219 486.882 647.68 487.087 648.167 487.104Z" fill="#020202"/>
<path d="M658.43 488.744C658.917 488.727 659.379 488.522 659.717 488.171C660.056 487.821 660.245 487.352 660.245 486.865C660.245 486.378 660.056 485.909 659.717 485.559C659.379 485.208 658.917 485.003 658.43 484.986C657.943 485.003 657.482 485.208 657.143 485.559C656.805 485.909 656.615 486.378 656.615 486.865C656.615 487.352 656.805 487.821 657.143 488.171C657.482 488.522 657.943 488.727 658.43 488.744Z" fill="#020202"/>
</svg>
