<svg width="20" height="16" viewBox="0 0 20 16" fill="none" xmlns="http://www.w3.org/2000/svg">
<path d="M9 13H11V12H12C12.2833 12 12.5208 11.9042 12.7125 11.7125C12.9042 11.5208 13 11.2833 13 11V8C13 7.71667 12.9042 7.47917 12.7125 7.2875C12.5208 7.09583 12.2833 7 12 7H9V6H13V4H11V3H9V4H8C7.71667 4 7.47917 4.09583 7.2875 4.2875C7.09583 4.47917 7 4.71667 7 5V8C7 8.28333 7.09583 8.52083 7.2875 8.7125C7.47917 8.90417 7.71667 9 8 9H11V10H7V12H9V13ZM2 16C1.45 16 0.979167 15.8042 0.5875 15.4125C0.195833 15.0208 0 14.55 0 14V2C0 1.45 0.195833 0.979167 0.5875 0.5875C0.979167 0.195833 1.45 0 2 0H18C18.55 0 19.0208 0.195833 19.4125 0.5875C19.8042 0.979167 20 1.45 20 2V14C20 14.55 19.8042 15.0208 19.4125 15.4125C19.0208 15.8042 18.55 16 18 16H2Z" fill="url(#paint0_linear_512_195)"/>
<defs>
<linearGradient id="paint0_linear_512_195" x1="10" y1="0" x2="10" y2="16" gradientUnits="userSpaceOnUse">
<stop stop-color="#8C6FE2"/>
<stop offset="1" stop-color="#5870C5"/>
</linearGradient>
</defs>
</svg>
