<svg width="72" height="72" viewBox="0 0 72 72" fill="none" xmlns="http://www.w3.org/2000/svg">
<path d="M11.2021 52.7957V47.7001H11.8907H12.5793V52.2449V56.7896H15.0582C17.3534 56.7896 17.537 56.841 17.537 57.3404C17.537 57.8593 17.3534 57.8912 14.3695 57.8912H11.2021V52.7957ZM19.1896 54.0351C19.1896 50.3626 19.2153 50.179 19.7405 50.179C20.2651 50.179 20.2913 50.3641 20.2913 54.0351C20.2913 57.7076 20.2656 57.8912 19.7405 57.8912C19.2159 57.8912 19.1896 57.7061 19.1896 54.0351ZM23.19 57.2345C21.7788 55.8233 21.6572 52.5421 22.9586 50.9951C23.6827 50.1348 25.0568 49.7269 26.2348 50.0221C27.0899 50.2381 28.2787 51.3624 28.2787 51.9569C28.2787 52.6352 27.0756 52.4814 26.7603 51.7614C26.4728 51.1062 25.6103 50.8537 24.5598 51.117C22.8102 51.5542 23.0069 56.4913 24.7918 56.9393C25.5932 57.1398 26.4954 56.7181 26.9047 55.9554C27.2534 55.3043 28.2785 55.2221 28.2785 55.8474C28.2785 56.084 27.9165 56.6441 27.4734 57.0869C26.7931 57.7667 26.4496 57.8917 25.2574 57.8917C24.1379 57.8917 23.7113 57.7575 23.19 57.2345ZM30.4847 57.111C29.0405 55.6664 29.0353 52.5365 30.4744 50.9257C31.1805 50.1353 31.4219 50.0427 32.7719 50.0427C33.8909 50.0427 34.44 50.1867 34.8983 50.5935C35.634 51.2492 36.2663 52.6455 36.2663 53.6144V54.3118H33.4776H30.6888L30.8616 55.2066C31.1975 56.9449 33.0156 57.6145 34.4133 56.515C35.2706 55.8408 36.1227 55.7739 35.8825 56.4018C35.7904 56.6435 35.7153 56.8853 35.7153 56.9459C35.7153 57.3162 33.8679 57.8943 32.6781 57.8943C31.4944 57.8943 31.1399 57.7637 30.4847 57.111ZM34.8893 52.9165C34.8893 52.5 34.3139 51.4585 33.9529 51.2173C33.7862 51.1042 33.278 51.0168 32.8235 51.0168C31.8443 51.0168 31.4998 51.2173 31.0745 52.0232C30.5069 53.1017 30.6697 53.2122 32.8235 53.2122C34.102 53.2122 34.8893 53.0965 34.8893 52.9165ZM37.919 54.0361C37.919 50.3636 37.9447 50.18 38.4699 50.18C38.8448 50.18 39.0207 50.3652 39.0207 50.7555C39.0207 51.3094 39.0516 51.3042 39.8682 50.6166C40.9888 49.674 42.3815 49.659 43.3025 50.5652C43.9454 51.2086 43.9785 51.404 43.9785 54.5591C43.9785 57.6932 43.9477 57.8768 43.4277 57.8768C42.9139 57.8768 42.8768 57.6917 42.8768 55.1403C42.8768 51.5429 42.6634 50.991 41.2737 50.991C39.5542 50.991 39.2284 51.584 39.077 54.9876C38.9618 57.5801 38.8955 57.8768 38.4338 57.8768C37.9555 57.8768 37.919 57.6042 37.919 54.0207V54.0361ZM46.5577 57.5703C46.2342 57.4109 45.8339 56.9881 45.6684 56.625C45.4062 56.049 45.437 55.9642 45.9122 55.9642C46.212 55.9642 46.7051 56.211 47.0081 56.515C47.366 56.875 47.9262 57.0658 48.608 57.0658C49.9515 57.0658 50.6697 56.5499 50.546 55.6736C50.4709 55.1418 50.1906 54.9243 49.2115 54.6394C47.0727 54.0166 46.1787 53.5131 45.8973 52.773C45.0377 50.5122 48.7976 49.0465 51.0042 50.7822C51.8058 51.4128 51.8643 51.7069 51.2356 51.9481C50.9584 52.0561 50.5778 51.8967 50.2609 51.5624C49.639 50.8954 47.7985 50.7971 47.2944 51.403C46.6309 52.2022 47.0928 52.7309 48.9933 53.347C51.3346 54.1061 51.6913 54.411 51.6862 55.6499C51.6813 56.804 51.5077 57.1342 50.6756 57.5718C49.9394 57.9576 47.3621 57.956 46.5577 57.5703ZM54.5047 57.4623C53.1133 56.4877 52.6184 53.7173 53.471 51.6761C54.2417 49.8318 57.3121 49.3417 58.7964 50.826C59.4333 51.4626 60.0859 53.8119 59.726 54.1719C59.6494 54.249 58.4295 54.3107 57.0156 54.3107C54.4449 54.3107 54.4449 54.3107 54.4449 55.0117C54.4449 56.6816 56.8493 57.6901 58.0256 56.514C58.3285 56.2105 58.7623 55.9632 58.9896 55.9632C59.6409 55.9632 59.4725 56.695 58.6769 57.3203C57.7778 58.0275 55.4266 58.1103 54.5047 57.4623ZM58.4682 52.7741C58.3761 52.5324 58.3011 52.2336 58.3011 52.1055C58.3011 51.5429 57.3581 51.0065 56.3689 51.0065C55.2429 51.0065 54.445 51.7172 54.445 52.7206C54.445 53.1474 54.716 53.2091 56.5402 53.2091C58.3376 53.2091 58.6116 53.1495 58.4682 52.7741ZM19.1896 47.839C19.1896 47.335 19.3367 47.1504 19.7405 47.1504C20.1447 47.1504 20.2913 47.3355 20.2913 47.839C20.2913 48.343 20.1442 48.5276 19.7405 48.5276C19.3362 48.5276 19.1896 48.3425 19.1896 47.839ZM8.44779 42.3305V40.8154H6.79518H5.14258V39.3008V37.7857H6.79518H8.44779V36.2706V34.7561H6.79518H5.14258V24.4272V14.0988H18.2256H31.3086V24.4138V34.7283L29.7249 34.8106L28.1412 34.8929L28.0579 36.3385L27.9746 37.7847H29.6416H31.3085V39.2998V40.8144H29.656H28.0034V42.3294V43.844H26.3507H24.6981V42.3294V40.8144H26.3507H28.0034V39.2998V37.7847H26.3363H24.6694L24.7527 36.3385L24.836 34.8929L26.4198 34.8106L28.0035 34.7283V33.3788V32.0293L26.4198 31.947L24.836 31.8648L24.7614 26.2873L24.6869 20.7099H22.7645H20.8422V32.2782V43.8461H18.3633H15.8844V32.2782V20.7099H13.8187H11.753V26.3562V32.0026H10.1003H8.44779V33.3798V34.7561L10.1003 34.7571H11.753V36.2717V37.7868H10.1003L8.44779 37.7857V39.3018V40.8154L10.1003 40.8164H11.753V42.3315V43.8461H10.1003H8.44779V42.3305ZM35.1647 28.9719V14.0988H38.4699H41.775V28.9719V43.845H38.4699H35.1647V28.9719ZM56.0975 42.3305V40.8154H54.5827H53.0678V39.3008V37.7857H54.5827H56.0975V36.2706V34.7561H54.5138L52.9301 34.7566L53.0082 27.7325L53.0864 20.7089H49.359H45.6316V17.4036V14.0988H56.2445H66.8574L66.7797 17.3352L66.7021 20.571L63.0526 20.6482L59.4031 20.7253V26.364V32.0021H57.7354H56.0678L56.1516 33.3104L56.2354 34.6188L57.8191 34.701L59.4029 34.7833V36.2706V37.7585L57.8191 37.8408L56.2354 37.923V39.3003V40.677L57.8191 40.7593L59.4029 40.8416V42.3428V43.8435H57.7503H56.0977L56.0975 42.3305Z" fill="url(#paint0_linear_43_193)"/>
<defs>
<linearGradient id="paint0_linear_43_193" x1="36" y1="14.0988" x2="36" y2="57.9013" gradientUnits="userSpaceOnUse">
<stop stop-color="#8C6FE2"/>
<stop offset="1" stop-color="#5870C5"/>
</linearGradient>
</defs>
</svg>
