<svg width="38" height="35" viewBox="0 0 38 35" fill="none" xmlns="http://www.w3.org/2000/svg">
<path d="M4.00008 35C3.08341 35 2.29869 34.6736 1.64591 34.0208C0.993137 33.3681 0.666748 32.5833 0.666748 31.6667V10H4.00008V31.6667H29.0001V35H4.00008ZM10.6667 28.3333C9.75008 28.3333 8.96536 28.0069 8.31258 27.3542C7.6598 26.7014 7.33342 25.9167 7.33342 25V10.8333C7.33342 10.25 7.46536 9.69444 7.72925 9.16667C7.99314 8.63889 8.38897 8.22222 8.91675 7.91667L22.3334 0L26.4167 2.41667L23.9167 4.83333L22.3334 3.91667L11.0001 10.5833L22.3334 17.25L33.6668 10.5833L31.4167 9.25L33.8334 6.83333L35.7501 7.91667C36.2779 8.22222 36.6737 8.63889 36.9376 9.16667C37.2015 9.69444 37.3334 10.25 37.3334 10.8333V25C37.3334 25.9167 37.007 26.7014 36.3543 27.3542C35.7015 28.0069 34.9167 28.3333 34.0001 28.3333H10.6667ZM22.0834 15L17.4167 10.3333L19.7501 8L22.0834 10.3333L29.8334 2.58333L32.1667 4.91667L22.0834 15Z" fill="url(#paint0_linear_43_167)"/>
<defs>
<linearGradient id="paint0_linear_43_167" x1="19.0001" y1="0" x2="19.0001" y2="35" gradientUnits="userSpaceOnUse">
<stop stop-color="#8C6FE2"/>
<stop offset="1" stop-color="#5870C5"/>
</linearGradient>
</defs>
</svg>
