<svg width="21" height="21" viewBox="0 0 21 21" fill="none" xmlns="http://www.w3.org/2000/svg">
<path d="M13.1128 16.9045L14.6283 16.0295L14.0033 14.947C14.65 14.4004 15.1081 13.7606 15.3778 13.0276C15.6474 12.2946 15.5364 11.5023 15.0447 10.6507C14.6947 10.0445 14.2006 9.58876 13.5626 9.28358C12.9245 8.97839 11.9775 8.93816 10.7216 9.16289C9.68892 9.37421 8.94408 9.46745 8.48711 9.44261C8.03013 9.41778 7.69331 9.21772 7.47664 8.84244C7.25998 8.46716 7.22266 8.09419 7.36468 7.72351C7.5067 7.35284 7.83031 7.02167 8.33549 6.73C8.79737 6.46334 9.2228 6.36686 9.61177 6.44059C10.0007 6.51431 10.3488 6.68383 10.6559 6.94914L11.7166 5.58622C11.2661 5.17271 10.7197 4.90123 10.0772 4.77178C9.43476 4.64234 8.84123 4.70596 8.29661 4.96266L7.67161 3.88013L6.15607 4.75513L6.78107 5.83766C6.15105 6.4131 5.77146 7.05564 5.64232 7.76529C5.51317 8.47494 5.61943 9.12565 5.9611 9.71744C6.35277 10.3958 6.8679 10.8297 7.50649 11.0191C8.14509 11.2085 8.97768 11.209 10.0043 11.0204C11.1053 10.8274 11.9076 10.7587 12.4112 10.8143C12.9148 10.87 13.2875 11.1071 13.5291 11.5257C13.8041 12.002 13.8366 12.4499 13.6266 12.8695C13.4166 13.289 13.0734 13.6363 12.5971 13.9113C12.1208 14.1863 11.6132 14.2821 11.0743 14.1987C10.5354 14.1153 10.0085 13.8277 9.49363 13.336L8.38969 14.7239C8.99176 15.3 9.62861 15.6781 10.3002 15.8581C10.9719 16.038 11.6927 16.0115 12.4628 15.7787L13.1128 16.9045ZM15.3922 19.0526C14.1942 19.7442 12.9371 20.1669 11.6209 20.3206C10.3048 20.4742 9.03198 20.3864 7.80256 20.0569C6.57314 19.7275 5.42693 19.1672 4.36393 18.3761C3.30093 17.5849 2.4236 16.5903 1.73193 15.3923C1.04027 14.1943 0.617599 12.9372 0.463929 11.6211C0.310259 10.3049 0.398135 9.0321 0.727558 7.80268C1.05698 6.57326 1.61727 5.42705 2.40844 4.36405C3.1996 3.30105 4.19419 2.42372 5.39219 1.73206C6.59019 1.04039 7.84727 0.61772 9.16344 0.46405C10.4796 0.310381 11.7524 0.398256 12.9818 0.72768C14.2112 1.0571 15.3574 1.6174 16.4204 2.40856C17.4834 3.19973 18.3608 4.19431 19.0524 5.39231C19.7441 6.59031 20.1668 7.8474 20.3204 9.16356C20.4741 10.4797 20.3862 11.7525 20.0568 12.9819C19.7274 14.2114 19.1671 15.3576 18.3759 16.4206C17.5848 17.4836 16.5902 18.3609 15.3922 19.0526Z" fill="url(#paint0_linear_512_223)"/>
<path d="M13.1128 16.9045L14.6283 16.0295L14.0033 14.947C14.65 14.4004 15.1081 13.7606 15.3778 13.0276C15.6474 12.2946 15.5364 11.5023 15.0447 10.6507C14.6947 10.0445 14.2006 9.58876 13.5626 9.28358C12.9245 8.97839 11.9775 8.93816 10.7216 9.16289C9.68892 9.37421 8.94408 9.46745 8.48711 9.44261C8.03013 9.41778 7.69331 9.21772 7.47664 8.84244C7.25998 8.46716 7.22266 8.09419 7.36468 7.72351C7.5067 7.35284 7.83031 7.02167 8.33549 6.73C8.79737 6.46334 9.2228 6.36686 9.61177 6.44059C10.0007 6.51431 10.3488 6.68383 10.6559 6.94914L11.7166 5.58622C11.2661 5.17271 10.7197 4.90123 10.0772 4.77178C9.43476 4.64234 8.84123 4.70596 8.29661 4.96266L7.67161 3.88013L6.15607 4.75513L6.78107 5.83766C6.15105 6.4131 5.77146 7.05564 5.64232 7.76529C5.51317 8.47494 5.61943 9.12565 5.9611 9.71744C6.35277 10.3958 6.8679 10.8297 7.50649 11.0191C8.14509 11.2085 8.97768 11.209 10.0043 11.0204C11.1053 10.8274 11.9076 10.7587 12.4112 10.8143C12.9148 10.87 13.2875 11.1071 13.5291 11.5257C13.8041 12.002 13.8366 12.4499 13.6266 12.8695C13.4166 13.289 13.0734 13.6363 12.5971 13.9113C12.1208 14.1863 11.6132 14.2821 11.0743 14.1987C10.5354 14.1153 10.0085 13.8277 9.49363 13.336L8.38969 14.7239C8.99176 15.3 9.62861 15.6781 10.3002 15.8581C10.9719 16.038 11.6927 16.0115 12.4628 15.7787L13.1128 16.9045ZM15.3922 19.0526C14.1942 19.7442 12.9371 20.1669 11.6209 20.3206C10.3048 20.4742 9.03198 20.3864 7.80256 20.0569C6.57314 19.7275 5.42693 19.1672 4.36393 18.3761C3.30093 17.5849 2.4236 16.5903 1.73193 15.3923C1.04027 14.1943 0.617599 12.9372 0.463929 11.6211C0.310259 10.3049 0.398135 9.0321 0.727558 7.80268C1.05698 6.57326 1.61727 5.42705 2.40844 4.36405C3.1996 3.30105 4.19419 2.42372 5.39219 1.73206C6.59019 1.04039 7.84727 0.61772 9.16344 0.46405C10.4796 0.310381 11.7524 0.398256 12.9818 0.72768C14.2112 1.0571 15.3574 1.6174 16.4204 2.40856C17.4834 3.19973 18.3608 4.19431 19.0524 5.39231C19.7441 6.59031 20.1668 7.8474 20.3204 9.16356C20.4741 10.4797 20.3862 11.7525 20.0568 12.9819C19.7274 14.2114 19.1671 15.3576 18.3759 16.4206C17.5848 17.4836 16.5902 18.3609 15.3922 19.0526Z" fill="url(#paint1_linear_512_223)"/>
<path d="M13.1128 16.9045L14.6283 16.0295L14.0033 14.947C14.65 14.4004 15.1081 13.7606 15.3778 13.0276C15.6474 12.2946 15.5364 11.5023 15.0447 10.6507C14.6947 10.0445 14.2006 9.58876 13.5626 9.28358C12.9245 8.97839 11.9775 8.93816 10.7216 9.16289C9.68892 9.37421 8.94408 9.46745 8.48711 9.44261C8.03013 9.41778 7.69331 9.21772 7.47664 8.84244C7.25998 8.46716 7.22266 8.09419 7.36468 7.72351C7.5067 7.35284 7.83031 7.02167 8.33549 6.73C8.79737 6.46334 9.2228 6.36686 9.61177 6.44059C10.0007 6.51431 10.3488 6.68383 10.6559 6.94914L11.7166 5.58622C11.2661 5.17271 10.7197 4.90123 10.0772 4.77178C9.43476 4.64234 8.84123 4.70596 8.29661 4.96266L7.67161 3.88013L6.15607 4.75513L6.78107 5.83766C6.15105 6.4131 5.77146 7.05564 5.64232 7.76529C5.51317 8.47494 5.61943 9.12565 5.9611 9.71744C6.35277 10.3958 6.8679 10.8297 7.50649 11.0191C8.14509 11.2085 8.97768 11.209 10.0043 11.0204C11.1053 10.8274 11.9076 10.7587 12.4112 10.8143C12.9148 10.87 13.2875 11.1071 13.5291 11.5257C13.8041 12.002 13.8366 12.4499 13.6266 12.8695C13.4166 13.289 13.0734 13.6363 12.5971 13.9113C12.1208 14.1863 11.6132 14.2821 11.0743 14.1987C10.5354 14.1153 10.0085 13.8277 9.49363 13.336L8.38969 14.7239C8.99176 15.3 9.62861 15.6781 10.3002 15.8581C10.9719 16.038 11.6927 16.0115 12.4628 15.7787L13.1128 16.9045ZM15.3922 19.0526C14.1942 19.7442 12.9371 20.1669 11.6209 20.3206C10.3048 20.4742 9.03198 20.3864 7.80256 20.0569C6.57314 19.7275 5.42693 19.1672 4.36393 18.3761C3.30093 17.5849 2.4236 16.5903 1.73193 15.3923C1.04027 14.1943 0.617599 12.9372 0.463929 11.6211C0.310259 10.3049 0.398135 9.0321 0.727558 7.80268C1.05698 6.57326 1.61727 5.42705 2.40844 4.36405C3.1996 3.30105 4.19419 2.42372 5.39219 1.73206C6.59019 1.04039 7.84727 0.61772 9.16344 0.46405C10.4796 0.310381 11.7524 0.398256 12.9818 0.72768C14.2112 1.0571 15.3574 1.6174 16.4204 2.40856C17.4834 3.19973 18.3608 4.19431 19.0524 5.39231C19.7441 6.59031 20.1668 7.8474 20.3204 9.16356C20.4741 10.4797 20.3862 11.7525 20.0568 12.9819C19.7274 14.2114 19.1671 15.3576 18.3759 16.4206C17.5848 17.4836 16.5902 18.3609 15.3922 19.0526Z" fill="url(#paint2_linear_512_223)"/>
<defs>
<linearGradient id="paint0_linear_512_223" x1="-0.438709" y1="-2.27872" x2="3.55788" y2="-4.30374" gradientUnits="userSpaceOnUse">
<stop stop-color="#BDA7F2"/>
<stop offset="1" stop-color="#BDA7F2" stop-opacity="0"/>
</linearGradient>
<linearGradient id="paint1_linear_512_223" x1="4.16493" y1="-1.40839" x2="1.55308" y2="7.47814" gradientUnits="userSpaceOnUse">
<stop stop-color="#88A5EE"/>
<stop offset="1" stop-color="#88A5EE" stop-opacity="0"/>
</linearGradient>
<linearGradient id="paint2_linear_512_223" x1="13.8644" y1="16.4064" x2="8.86446" y2="7.74609" gradientUnits="userSpaceOnUse">
<stop stop-color="#EDC2B4"/>
<stop offset="1" stop-color="#EDC2B4" stop-opacity="0"/>
</linearGradient>
</defs>
</svg>
